<svg xmlns="http://www.w3.org/2000/svg" viewBox="0 0 32 32">
  <circle cx="16" cy="16" r="15" fill="#1a6fa8"/>
  <ellipse cx="16" cy="16" rx="15" ry="5" fill="none" stroke="#1558a0" stroke-width="0.6" opacity="0.6"/>
  <ellipse cx="16" cy="16" rx="5" ry="15" fill="none" stroke="#1558a0" stroke-width="0.6" opacity="0.6"/>
  <path d="M7,6 Q2,11 2,16 Q2,21 7,24 Q10,25 11,21 Q12,18 11,16 Q11,12 9,8 Z" fill="#2d9e4f"/>
  <path d="M13,7 Q18,9 19,13 Q19,16 17,18 Q14,19 14,23 Q12,26 11,24 Q11,20 12,17 Q11,13 13,9 Z" fill="#2d9e4f"/>
  <path d="M20,7 Q26,9 27,13 Q27,17 23,18 Q19,19 18,16 Q17,12 19,9 Z" fill="#2d9e4f"/>
  <circle cx="16" cy="16" r="15" fill="none" stroke="#0d4a7a" stroke-width="1.5"/>
</svg>